<svg width="99" height="40" viewBox="0 0 99 40" fill="none" xmlns="http://www.w3.org/2000/svg">
<g clip-path="url(#clip0)">
<path d="M94.5833 26.6433C96.9217 22.4547 96.3684 17.5516 94.3794 13.0546C97.8503 15.6278 98.8816 23.4637 97.35 27.9196C95.9795 31.901 92.1129 31.0701 94.5833 26.6433Z" fill="#DFDFDF"/>
<path d="M70.3936 33.657C67.4436 31.7006 65.3638 28.7214 64.3599 25.338C69.1482 26.0489 71.084 29.0897 70.3936 33.657Z" fill="#DFDFDF"/>
<path d="M73.6949 8.3418C70.0116 9.84765 67.8702 13.5138 67.1558 17.3649C66.5528 20.6251 64.4747 19.9278 63.7809 20.3287C64.3428 15.722 67.973 8.7855 73.6949 8.3418Z" fill="#DFDFDF"/>
<path fill-rule="evenodd" clip-rule="evenodd" d="M85.1096 33.4377C85.0925 35.6785 83.8008 38.6337 85.2158 39.8106C86.3054 40.7168 87.3915 38.1762 88.4759 36.3123C89.7145 34.1812 90.3484 34.6352 92.9387 34.3988C98.9536 33.8488 97.7184 32.2316 94.7135 31.7297C93.5914 31.5412 91.9536 31.298 91.1947 29.6499C90.4752 28.0858 91.2427 26.6091 92.4419 24.9079C94.0677 22.602 94.5319 21.2795 90.9737 23.3027C87.3093 25.3859 87.1106 25.9221 83.2645 23.9057C78.0994 21.199 79.6704 23.952 82.0259 26.2664C83.9053 28.1115 85.1319 30.76 85.1096 33.4377Z" fill="#0D99B7"/>
<path fill-rule="evenodd" clip-rule="evenodd" d="M70.6061 15.3075C72.3055 14.564 74.9695 14.91 75.3601 12.7549C76.8402 13.8256 76.0745 17.4078 72.7458 18.9976C70.0887 20.2687 68.0038 16.4467 70.6061 15.3075Z" fill="#CC3399"/>
<path fill-rule="evenodd" clip-rule="evenodd" d="M80.3607 31.6783C78.0703 26.6691 77.0766 23.2102 79.3277 17.9286C82.0242 11.6002 80.4378 12.5955 77.3165 16.6403C74.5566 20.2173 71.1406 20.5069 66.0028 21.6238C62.926 22.292 62.9586 23.5443 67.125 23.7207C71.8892 23.9212 72.8452 27.1881 72.7064 31.2894C72.6601 32.6719 72.4443 34.063 71.9903 35.3222C70.4519 39.5845 72.3706 39.2127 73.9056 37.0593C74.6697 35.9869 75.3532 34.7791 75.6958 33.3932C76.3914 30.5767 77.1606 31.3134 78.4009 33.1859C82.694 39.6599 82.0259 35.3204 80.3607 31.6783Z" fill="#CC3399"/>
<path fill-rule="evenodd" clip-rule="evenodd" d="M85.2432 23.522C84.3472 22.537 84.5065 20.4041 85.5087 19.491C86.785 18.3295 87.9157 18.4597 88.6147 19.1621C91.0508 21.6033 87.2047 25.6772 85.2432 23.522Z" fill="#0D99B7"/>
<path fill-rule="evenodd" clip-rule="evenodd" d="M91.7789 11.1051C87.5405 13.5378 81.1402 12.4602 77.4998 9.49644C75.7524 8.07453 76.0796 8.03855 77.9503 7.57429C79.5658 7.17341 80.5201 6.85991 82.4217 8.29552C83.5523 9.14867 84.7053 9.77568 85.7623 10.0344C88.2789 10.6494 90.1805 10.5963 91.9091 9.9607C95.2223 8.74094 95.3217 9.07158 91.7789 11.1051Z" fill="#90278E"/>
<path fill-rule="evenodd" clip-rule="evenodd" d="M86.2231 4.72535C87.1568 6.69547 89.2725 8.4189 91.527 8.50798C93.1734 8.57308 94.2081 8.13451 91.5921 9.0973C90.0366 9.66949 88.3012 9.71061 85.9781 9.14356C85.1062 8.93113 84.1468 8.42403 83.1891 7.72678C80.8695 6.04105 83.0281 5.45001 84.707 4.04866C86.3139 2.70383 85.358 2.89913 86.2231 4.72535Z" fill="#00ADEE"/>
<path fill-rule="evenodd" clip-rule="evenodd" d="M78.5876 0.502432C80.4207 1.26821 82.0002 1.57144 83.7459 1.69136C85.37 1.80271 85.692 1.62626 84.438 3.14411C83.8573 3.8465 83.1463 4.44096 82.3514 4.93777C80.4395 6.13355 78.7487 3.73 77.7739 1.63311C76.8522 -0.347289 76.758 -0.261632 78.5876 0.502432Z" fill="#BE1E2D"/>
<path fill-rule="evenodd" clip-rule="evenodd" d="M76.5387 5.18616C76.662 4.44266 76.758 3.61349 76.7888 2.76206C76.8368 1.39839 76.6261 1.37955 77.3644 2.58218C77.7636 3.23146 78.2501 3.93899 78.6801 4.51975C79.4048 5.49453 79.9496 6.13867 78.7692 6.4676C78.3752 6.57724 77.9777 6.67489 77.5786 6.75883C75.6513 7.16142 76.256 6.88046 76.5387 5.18616Z" fill="#F6921E"/>
<g clip-path="url(#clip1)">
<path d="M37.6446 5.0944C32.9576 5.07637 27.762 6.5301 24.962 8.24431C23.9154 8.88507 22.8415 9.60247 21.7653 10.3596C21.7653 10.3596 12.0537 17.7817 9.03626 21.517C8.63211 22.0173 8.26415 22.5566 7.94354 23.1247C7.92193 23.1654 7.89888 23.2066 7.87767 23.2477C7.84768 23.3024 7.8176 23.3579 7.78854 23.4131C7.78166 23.4269 7.776 23.4415 7.76917 23.4554C7.2924 24.4228 6.92907 25.4704 6.75007 26.5284C6.74857 26.5373 6.74768 26.5464 6.7462 26.5553C6.74085 26.5925 6.73564 26.6295 6.73071 26.6669C6.5685 27.8937 6.6353 29.2028 7.14144 30.3129C7.75673 31.6624 8.78088 32.6696 10.2646 33.4974C11.6954 34.2958 14.3139 34.9743 14.3139 34.9743L14.2712 34.9935C16.4535 35.3777 18.7141 35.2487 20.9205 35.0358C22.0024 34.9315 23.0848 34.8133 24.1677 34.6782C24.1684 34.6782 24.1708 34.6781 24.1716 34.6782C24.179 34.6783 24.2024 34.678 24.2103 34.6782C24.139 34.3175 24.0237 33.6267 24.1638 33.5897C25.6471 33.198 26.5302 32.9616 27.6861 32.5628C28.7914 32.1815 29.6002 31.8341 30.4954 31.3436C30.7191 31.2211 30.8961 31.0168 31.1309 30.9167C31.872 30.6006 32.6972 30.5266 33.4946 30.4052C34.1316 30.3082 34.776 30.2447 35.4204 30.2321C35.8383 30.224 36.2615 30.2149 36.672 30.2937C36.9863 30.354 37.3043 30.4414 37.5787 30.6052C37.7622 30.7148 37.9324 30.8631 38.0514 31.0398C38.1149 31.1741 38.1674 31.3155 38.218 31.4552C40.5614 30.5837 42.9417 29.5328 44.7511 27.8284C47.4275 25.3072 49.554 22.0121 50.6061 18.5017C51.1776 16.5947 51.2768 14.4517 50.7339 12.5365C50.3983 11.3524 49.8809 10.5904 48.7267 9.42889C46.3657 7.05293 42.9261 5.58355 39.5859 5.20209C38.9675 5.13147 38.3141 5.09698 37.6446 5.0944ZM21.7653 10.3596C21.2858 10.697 20.8048 11.0424 20.3277 11.3942L21.7653 10.3596ZM31.8748 12.6019C33.3933 12.5974 34.2347 12.8288 34.2347 12.8288C34.2347 12.8288 31.7365 13.0602 30.3481 13.3057C29.2485 13.5002 27.4796 13.8382 26.1013 14.3018C23.4136 15.2058 20.8569 16.4698 18.3321 17.7556C16.3915 18.7439 14.532 19.8856 12.6748 21.0209C11.4054 21.7968 8.92776 23.4439 8.92776 23.4439C8.92776 23.4439 11.0392 20.7357 16.6543 17.6056C18.2598 16.7106 19.8983 15.871 21.5793 15.1249C22.8928 14.5418 24.2246 13.9861 25.6014 13.5711C26.6474 13.2558 27.7269 13.0373 28.8059 12.8634C29.5921 12.7367 30.4279 12.6569 31.1812 12.6211C31.4252 12.6095 31.6579 12.6025 31.8748 12.6019ZM12.6128 15.1864C12.1155 15.1893 11.689 15.7687 11.4271 16.2056C11.0914 16.7655 10.9423 17.7263 10.873 18.494C11.9506 17.5792 13.026 16.7282 13.7714 16.1518C13.4834 15.6716 13.1226 15.2564 12.7135 15.1941C12.6798 15.189 12.6459 15.1862 12.6128 15.1864ZM34.3238 17.6325C34.3238 17.6325 29.6354 19.3984 27.3064 20.3209C24.6233 21.3836 21.9487 22.4729 19.2931 23.6016C17.4355 24.3911 15.5885 25.2071 13.752 26.0438C12.0636 26.8131 8.71464 28.413 8.71464 28.413C8.71464 28.413 11.5664 26.0924 16.8558 23.7977C19.9425 22.4586 22.024 21.2853 25.3457 20.2094C26.8967 19.707 28.4274 19.1412 29.9955 18.694C31.4235 18.2867 34.3238 17.6325 34.3238 17.6325ZM35.9512 22.3554C35.9512 22.3554 35.2932 23.1332 33.8239 24.0977C33.0893 24.5799 32.4452 25.0855 31.7237 25.5284C30.7899 26.1017 29.8314 26.635 28.8447 27.113C27.6216 27.7055 26.3516 28.2007 25.086 28.6976C23.8455 29.1846 22.5977 29.6583 21.3274 30.0629C19.7601 30.5621 18.1776 31.024 16.569 31.3706C15.4019 31.6221 13.0313 31.9282 13.0313 31.9282C13.0313 31.9282 15.9564 30.9447 17.4138 30.436C18.9524 29.8989 20.4115 29.3921 22.0171 28.7899C23.6769 28.1674 24.8636 27.7138 26.2756 27.1476C27.4302 26.6846 28.5927 26.2371 29.7204 25.713C30.5829 25.3122 31.42 24.8576 32.2585 24.4092C33.5009 23.7449 35.9512 22.3554 35.9512 22.3554ZM39.3573 25.4054C39.3573 25.4054 39.318 25.8878 38.0824 27.1438C37.5835 27.6509 36.7046 28.3053 36.145 28.6476C33.9761 29.9742 32.8203 30.3129 32.8203 30.3129C32.8203 30.3129 34.9615 28.9228 35.9977 28.1784C36.6079 27.7399 37.2095 27.2842 37.7879 26.8053C38.3281 26.3581 39.3573 25.4054 39.3573 25.4054ZM6.09134 30.0014C5.36283 30.3266 4.48502 30.7302 3.90978 31.036C2.8432 31.6029 0.744501 32.5948 0.813745 32.9167C0.919588 33.4087 3.29558 32.457 4.53364 32.2128C5.32134 32.0575 6.10461 31.8945 6.88957 31.7282C6.57286 31.1785 6.29755 30.5997 6.09134 30.0014ZM35.1336 30.7898C34.8182 30.7918 34.4812 30.8102 34.0719 30.8552C32.8182 30.9932 32.4788 31.1044 31.4757 31.4283C31.1184 31.5436 30.9075 31.7291 30.6271 31.8821C30.1234 32.1569 29.6489 32.4886 29.1237 32.7205C28.369 33.0538 27.566 33.2674 26.7755 33.5051C26.1236 33.7011 26.0335 33.7394 24.8032 34.032C24.5896 34.0828 24.7905 34.4291 24.9814 34.6935C27.9002 34.7523 36.7285 34.8923 36.8463 34.4051L37.4973 31.7206C37.5553 31.7 37.6137 31.6799 37.6717 31.659C37.6472 31.5668 37.6156 31.4744 37.5787 31.4129C37.4711 31.2334 37.314 31.0706 37.1253 30.9783C36.8082 30.8231 36.4319 30.8477 36.0791 30.8244C35.7458 30.8025 35.449 30.7878 35.1336 30.7898ZM36.7301 31.5129C37.0799 31.5186 37.3635 31.5715 37.3617 31.7436C37.3577 32.1142 36.5555 32.096 36.1876 32.1321C33.8147 32.365 32.9825 32.3254 31.3789 32.3321C31.0708 32.3334 30.4566 32.3013 30.4566 32.3013C30.4566 32.3013 31.9976 31.9383 33.3667 31.7744C34.1627 31.6791 34.9392 31.5806 35.7032 31.5552C35.9653 31.5465 36.3802 31.5071 36.7301 31.5129ZM34.9128 32.9898C35.198 32.9843 35.4835 32.9932 35.7652 33.0321C35.988 33.0628 36.2394 33.0739 36.4123 33.2167C36.4895 33.2804 36.5791 33.4169 36.548 33.482C36.4846 33.6145 36.2462 33.6208 35.7381 33.6551C35.1289 33.6963 34.5349 33.745 33.9324 33.7628C32.4387 33.807 29.4492 33.7551 29.4492 33.7551C29.4492 33.7551 30.3815 33.5093 30.8558 33.4244C31.9137 33.2348 32.9834 33.0971 34.0564 33.0321C34.3403 33.0148 34.6275 32.9952 34.9128 32.9898Z" fill="#3071A9"/>
</g>
</g>
<defs>
<clipPath id="clip0">
<rect width="98.0398" height="40" fill="white"/>
</clipPath>
<clipPath id="clip1">
<rect y="4" width="52" height="32" fill="white"/>
</clipPath>
</defs>
</svg>
